<svg width="1384" height="512" viewBox="0 0 1384 512" fill="none" xmlns="http://www.w3.org/2000/svg">
<path d="M301.176 48.1882L90.3529 234.918V457.788H512V234.918L301.176 48.1882Z" stroke="#171615" stroke-width="16.8659" stroke-linejoin="round"/>
<path d="M301.176 48.1882L90.3529 234.918V457.788H512V234.918L301.176 48.1882Z" stroke="white" stroke-width="16.8659" stroke-linejoin="round"/>
<path d="M301.177 84.3295L126.494 252.988V433.694H475.859V252.988L301.177 84.3295Z" stroke="white" stroke-width="6.02353" stroke-linejoin="round"/>
<path d="M301.177 129.506V433.694" stroke="white" stroke-width="4.81882" stroke-linecap="round"/>
<path d="M274.071 132.518C246.965 219.859 219.859 313.224 177.694 397.553" stroke="#C8A45D" stroke-opacity="0.96" stroke-width="10.8424" stroke-linecap="round"/>
<path d="M243.953 156.612C219.859 243.953 201.788 322.259 162.635 406.588" stroke="#C8A45D" stroke-opacity="0.96" stroke-width="10.8424" stroke-linecap="round"/>
<path d="M210.824 192.753C189.741 274.071 177.694 343.341 147.577 415.624" stroke="#C8A45D" stroke-opacity="0.96" stroke-width="10.8424" stroke-linecap="round"/>
<path d="M177.694 243.953C162.635 313.223 153.6 376.471 135.529 424.659" stroke="#C8A45D" stroke-opacity="0.96" stroke-width="10.8424" stroke-linecap="round"/>
<path d="M328.282 132.518C355.388 219.859 382.494 313.224 424.659 397.553" stroke="#C8A45D" stroke-opacity="0.96" stroke-width="10.8424" stroke-linecap="round"/>
<path d="M358.4 156.612C382.494 243.953 400.565 322.259 439.718 406.588" stroke="#C8A45D" stroke-opacity="0.96" stroke-width="10.8424" stroke-linecap="round"/>
<path d="M391.529 192.753C412.612 274.071 424.659 343.341 454.776 415.624" stroke="#C8A45D" stroke-opacity="0.96" stroke-width="10.8424" stroke-linecap="round"/>
<path d="M424.659 243.953C439.718 313.223 448.753 376.471 466.824 424.659" stroke="#C8A45D" stroke-opacity="0.96" stroke-width="10.8424" stroke-linecap="round"/>
<path d="M132.518 343.341C156.612 358.4 186.729 358.4 210.824 340.329" stroke="#8B5A18" stroke-width="13.2518" stroke-linecap="round"/>
<path d="M391.529 340.329C415.624 358.4 445.741 358.4 469.835 343.341" stroke="#8B5A18" stroke-width="13.2518" stroke-linecap="round"/>
<path d="M90.3529 457.788H512" stroke="white" stroke-width="16.8659" stroke-linecap="round"/>
<path d="M639.277 255.715L695.657 129.221H724.57L781.131 255.715H750.411L704.151 144.039H715.716L669.274 255.715H639.277ZM667.467 228.609L675.238 206.383H740.292L748.243 228.609H667.467Z" fill="#C8A45D"/>
<path d="M845.033 255.715V129.221H892.378C903.1 129.221 912.316 130.968 920.026 134.462C927.737 137.835 933.64 142.774 937.736 149.28C941.952 155.665 944.06 163.435 944.06 172.591C944.06 181.505 941.952 189.216 937.736 195.721C933.64 202.106 927.737 207.045 920.026 210.539C912.316 214.033 903.1 215.779 892.378 215.779H852.442L858.406 209.455V255.715H845.033ZM858.406 210.539L852.442 204.033H892.017C904.666 204.033 914.244 201.323 920.749 195.902C927.375 190.36 930.688 182.59 930.688 172.591C930.688 162.471 927.375 154.641 920.749 149.099C914.244 143.557 904.666 140.786 892.017 140.786H852.442L858.406 134.462V210.539ZM1018.15 255.715V129.221H1104.89V140.786H1031.52V244.15H1107.6V255.715H1018.15ZM1030.08 197.167V185.782H1096.94V197.167H1030.08ZM1165.27 255.715L1217.13 185.601V195.902L1168.34 129.221H1183.7L1224.72 184.879L1218.76 185.059L1259.78 129.221H1274.24L1225.99 194.998V185.601L1277.67 255.715H1262.13L1218.4 196.263H1224L1180.63 255.715H1165.27ZM683.707 381.944C678.177 381.944 673.023 381.057 668.244 379.282C663.534 377.439 659.438 374.844 655.956 371.499C652.475 368.154 649.744 364.229 647.764 359.723C645.853 355.218 644.897 350.268 644.897 344.875C644.897 339.482 645.853 334.533 647.764 330.027C649.744 325.522 652.475 321.596 655.956 318.251C659.506 314.906 663.636 312.346 668.347 310.571C673.057 308.728 678.211 307.807 683.809 307.807C690.021 307.807 695.619 308.899 700.603 311.083C705.654 313.2 709.887 316.34 713.3 320.504L702.651 330.335C700.193 327.536 697.462 325.453 694.459 324.088C691.455 322.655 688.178 321.938 684.628 321.938C681.283 321.938 678.211 322.484 675.412 323.576C672.613 324.668 670.19 326.239 668.142 328.287C666.094 330.335 664.49 332.758 663.329 335.557C662.237 338.356 661.691 341.462 661.691 344.875C661.691 348.289 662.237 351.395 663.329 354.194C664.49 356.993 666.094 359.416 668.142 361.464C670.19 363.512 672.613 365.082 675.412 366.175C678.211 367.267 681.283 367.813 684.628 367.813C688.178 367.813 691.455 367.13 694.459 365.765C697.462 364.331 700.193 362.181 702.651 359.314L713.3 369.144C709.887 373.308 705.654 376.483 700.603 378.667C695.619 380.852 689.987 381.944 683.707 381.944ZM765.189 381.944C755.017 381.944 747.064 379.111 741.33 373.445C735.596 367.779 732.728 359.689 732.728 349.176V309.035H749.317V348.562C749.317 355.388 750.717 360.304 753.516 363.307C756.314 366.311 760.24 367.813 765.292 367.813C770.343 367.813 774.269 366.311 777.068 363.307C779.866 360.304 781.266 355.388 781.266 348.562V309.035H797.65V349.176C797.65 359.689 794.783 367.779 789.048 373.445C783.314 379.111 775.361 381.944 765.189 381.944ZM824.283 380.715V309.035H854.9C864.867 309.035 872.616 311.356 878.145 315.999C883.675 320.572 886.44 326.921 886.44 335.045C886.44 340.37 885.177 344.978 882.651 348.869C880.125 352.692 876.541 355.627 871.899 357.675C867.257 359.723 861.727 360.747 855.31 360.747H833.499L840.872 353.477V380.715H824.283ZM869.851 380.715L851.931 354.706H869.646L887.771 380.715H869.851ZM840.872 355.32L833.499 347.538H854.388C859.508 347.538 863.331 346.445 865.857 344.261C868.383 342.008 869.646 338.936 869.646 335.045C869.646 331.085 868.383 328.013 865.857 325.829C863.331 323.644 859.508 322.552 854.388 322.552H833.499L840.872 314.667V355.32ZM923.671 380.715V322.552H900.733V309.035H963.197V322.552H940.26V380.715H923.671ZM969.342 380.715L1001.29 309.035H1017.67L1049.73 380.715H1032.32L1006.1 317.432H1012.66L986.34 380.715H969.342ZM985.316 365.355L989.72 352.76H1026.58L1031.09 365.355H985.316ZM1067.4 380.715V309.035H1083.99V380.715H1067.4ZM1111.24 380.715V309.035H1124.96L1167.26 360.645H1160.6V309.035H1176.98V380.715H1163.36L1120.97 329.106H1127.63V380.715H1111.24ZM1227.73 381.944C1222 381.944 1216.5 381.193 1211.25 379.691C1205.99 378.121 1201.76 376.107 1198.55 373.65L1204.18 361.157C1207.25 363.341 1210.87 365.151 1215.04 366.584C1219.27 367.949 1223.54 368.632 1227.84 368.632C1231.11 368.632 1233.74 368.325 1235.72 367.711C1237.77 367.028 1239.27 366.106 1240.23 364.946C1241.18 363.785 1241.66 362.454 1241.66 360.952C1241.66 359.041 1240.91 357.539 1239.41 356.447C1237.91 355.286 1235.93 354.364 1233.47 353.682C1231.01 352.931 1228.28 352.248 1225.28 351.634C1222.34 350.951 1219.37 350.132 1216.37 349.176C1213.43 348.22 1210.74 346.992 1208.28 345.49C1205.82 343.988 1203.81 342.008 1202.24 339.551C1200.74 337.093 1199.98 333.953 1199.98 330.13C1199.98 326.034 1201.08 322.313 1203.26 318.968C1205.51 315.555 1208.86 312.858 1213.3 310.879C1217.8 308.831 1223.43 307.807 1230.19 307.807C1234.7 307.807 1239.14 308.353 1243.5 309.445C1247.87 310.469 1251.73 312.039 1255.08 314.155L1249.96 326.751C1246.61 324.839 1243.27 323.44 1239.92 322.552C1236.58 321.596 1233.3 321.119 1230.09 321.119C1226.88 321.119 1224.25 321.494 1222.21 322.245C1220.16 322.996 1218.69 323.986 1217.8 325.215C1216.91 326.375 1216.47 327.74 1216.47 329.311C1216.47 331.154 1217.22 332.656 1218.72 333.816C1220.23 334.908 1222.21 335.796 1224.66 336.479C1227.12 337.161 1229.82 337.844 1232.75 338.527C1235.76 339.209 1238.73 339.994 1241.66 340.882C1244.66 341.769 1247.4 342.964 1249.85 344.466C1252.31 345.968 1254.29 347.947 1255.79 350.405C1257.36 352.863 1258.15 355.969 1258.15 359.723C1258.15 363.751 1257.02 367.437 1254.77 370.783C1252.52 374.128 1249.14 376.824 1244.63 378.872C1240.19 380.92 1234.56 381.944 1227.73 381.944Z" fill="white"/>
</svg>
