<svg width="1000" height="1290" viewBox="0 0 1000 1290" fill="none" xmlns="http://www.w3.org/2000/svg">
<path d="M500 80L150 390V760H850V390L500 80Z" stroke="#171615" stroke-width="28" stroke-linejoin="round"/>
<path d="M500 80L150 390V760H850V390L500 80Z" stroke="white" stroke-width="28" stroke-linejoin="round"/>
<path d="M500 140L210 420V720H790V420L500 140Z" stroke="white" stroke-width="10" stroke-linejoin="round"/>
<path d="M500 215V720" stroke="white" stroke-width="8" stroke-linecap="round"/>
<path d="M455 220C410 365 365 520 295 660" stroke="#C8A45D" stroke-opacity="0.96" stroke-width="18" stroke-linecap="round"/>
<path d="M405 260C365 405 335 535 270 675" stroke="#C8A45D" stroke-opacity="0.96" stroke-width="18" stroke-linecap="round"/>
<path d="M350 320C315 455 295 570 245 690" stroke="#C8A45D" stroke-opacity="0.96" stroke-width="18" stroke-linecap="round"/>
<path d="M295 405C270 520 255 625 225 705" stroke="#C8A45D" stroke-opacity="0.96" stroke-width="18" stroke-linecap="round"/>
<path d="M545 220C590 365 635 520 705 660" stroke="#C8A45D" stroke-opacity="0.96" stroke-width="18" stroke-linecap="round"/>
<path d="M595 260C635 405 665 535 730 675" stroke="#C8A45D" stroke-opacity="0.96" stroke-width="18" stroke-linecap="round"/>
<path d="M650 320C685 455 705 570 755 690" stroke="#C8A45D" stroke-opacity="0.96" stroke-width="18" stroke-linecap="round"/>
<path d="M705 405C730 520 745 625 775 705" stroke="#C8A45D" stroke-opacity="0.96" stroke-width="18" stroke-linecap="round"/>
<path d="M220 570C260 595 310 595 350 565" stroke="#8B5A18" stroke-width="22" stroke-linecap="round"/>
<path d="M650 565C690 595 740 595 780 570" stroke="#8B5A18" stroke-width="22" stroke-linecap="round"/>
<path d="M150 760H850" stroke="white" stroke-width="28" stroke-linecap="round"/>
<path d="M140.2 1044L202.6 904H234.6L297.2 1044H263.2L212 920.4H224.8L173.4 1044H140.2ZM171.4 1014L180 989.4H252L260.8 1014H171.4Z" fill="#C8A45D"/>
<path d="M367.925 1044V904H420.325C432.192 904 442.392 905.933 450.925 909.8C459.458 913.533 465.992 919 470.525 926.2C475.192 933.267 477.525 941.867 477.525 952C477.525 961.867 475.192 970.4 470.525 977.6C465.992 984.667 459.458 990.133 450.925 994C442.392 997.867 432.192 999.8 420.325 999.8H376.125L382.725 992.8V1044H367.925ZM382.725 994L376.125 986.8H419.925C433.925 986.8 444.525 983.8 451.725 977.8C459.058 971.667 462.725 963.067 462.725 952C462.725 940.8 459.058 932.133 451.725 926C444.525 919.867 433.925 916.8 419.925 916.8H376.125L382.725 909.8V994ZM559.527 1044V904H655.527V916.8H574.327V1031.2H658.527V1044H559.527ZM572.727 979.2V966.6H646.727V979.2H572.727ZM722.353 1044L779.753 966.4V977.8L725.753 904H742.753L788.153 965.6L781.553 965.8L826.953 904H842.953L789.553 976.8V966.4L846.753 1044H829.553L781.153 978.2H787.353L739.353 1044H722.353ZM190.07 1185.38C183.86 1185.38 178.072 1184.38 172.705 1182.39C167.415 1180.32 162.815 1177.41 158.905 1173.65C154.995 1169.89 151.928 1165.48 149.705 1160.42C147.558 1155.36 146.485 1149.81 146.485 1143.75C146.485 1137.69 147.558 1132.13 149.705 1127.07C151.928 1122.01 154.995 1117.61 158.905 1113.85C162.892 1110.09 167.53 1107.22 172.82 1105.22C178.11 1103.15 183.898 1102.12 190.185 1102.12C197.162 1102.12 203.448 1103.35 209.045 1105.8C214.718 1108.18 219.472 1111.7 223.305 1116.38L211.345 1127.42C208.585 1124.28 205.518 1121.94 202.145 1120.4C198.772 1118.79 195.092 1117.99 191.105 1117.99C187.348 1117.99 183.898 1118.6 180.755 1119.83C177.612 1121.06 174.89 1122.82 172.59 1125.12C170.29 1127.42 168.488 1130.14 167.185 1133.28C165.958 1136.43 165.345 1139.92 165.345 1143.75C165.345 1147.58 165.958 1151.07 167.185 1154.21C168.488 1157.36 170.29 1160.08 172.59 1162.38C174.89 1164.68 177.612 1166.44 180.755 1167.67C183.898 1168.9 187.348 1169.51 191.105 1169.51C195.092 1169.51 198.772 1168.74 202.145 1167.21C205.518 1165.6 208.585 1163.18 211.345 1159.96L223.305 1171C219.472 1175.68 214.718 1179.25 209.045 1181.7C203.448 1184.15 197.123 1185.38 190.07 1185.38ZM281.579 1185.38C270.155 1185.38 261.224 1182.2 254.784 1175.83C248.344 1169.47 245.124 1160.39 245.124 1148.58V1103.5H263.754V1147.89C263.754 1155.56 265.325 1161.08 268.469 1164.45C271.612 1167.82 276.02 1169.51 281.694 1169.51C287.367 1169.51 291.775 1167.82 294.919 1164.45C298.062 1161.08 299.634 1155.56 299.634 1147.89V1103.5H318.034V1148.58C318.034 1160.39 314.814 1169.47 308.374 1175.83C301.934 1182.2 293.002 1185.38 281.579 1185.38ZM347.943 1184V1103.5H382.328C393.522 1103.5 402.223 1106.11 408.433 1111.32C414.643 1116.46 417.748 1123.59 417.748 1132.71C417.748 1138.69 416.33 1143.86 413.493 1148.23C410.657 1152.53 406.632 1155.82 401.418 1158.12C396.205 1160.42 389.995 1161.57 382.788 1161.57H358.293L366.573 1153.41V1184H347.943ZM399.118 1184L378.993 1154.79H398.888L419.243 1184H399.118ZM366.573 1155.48L358.293 1146.74H381.753C387.503 1146.74 391.797 1145.51 394.633 1143.06C397.47 1140.53 398.888 1137.08 398.888 1132.71C398.888 1128.26 397.47 1124.81 394.633 1122.36C391.797 1119.91 387.503 1118.68 381.753 1118.68H358.293L366.573 1109.82V1155.48ZM459.561 1184V1118.68H433.801V1103.5H503.951V1118.68H478.191V1184H459.561ZM510.852 1184L546.732 1103.5H565.132L601.127 1184H581.577L552.137 1112.93H559.497L529.942 1184H510.852ZM528.792 1166.75L533.737 1152.6H575.137L580.197 1166.75H528.792ZM620.979 1184V1103.5H639.609V1184H620.979ZM670.213 1184V1103.5H685.623L733.118 1161.46H725.643V1103.5H744.043V1184H728.748L681.138 1126.04H688.613V1184H670.213ZM801.039 1185.38C794.599 1185.38 788.427 1184.54 782.524 1182.85C776.621 1181.09 771.867 1178.82 768.264 1176.06L774.589 1162.03C778.039 1164.49 782.102 1166.52 786.779 1168.13C791.532 1169.66 796.324 1170.43 801.154 1170.43C804.834 1170.43 807.786 1170.08 810.009 1169.39C812.309 1168.63 813.996 1167.59 815.069 1166.29C816.142 1164.99 816.679 1163.49 816.679 1161.8C816.679 1159.66 815.836 1157.97 814.149 1156.74C812.462 1155.44 810.239 1154.41 807.479 1153.64C804.719 1152.8 801.652 1152.03 798.279 1151.34C794.982 1150.57 791.647 1149.65 788.274 1148.58C784.977 1147.51 781.949 1146.13 779.189 1144.44C776.429 1142.75 774.167 1140.53 772.404 1137.77C770.717 1135.01 769.874 1131.48 769.874 1127.19C769.874 1122.59 771.101 1118.41 773.554 1114.65C776.084 1110.82 779.841 1107.79 784.824 1105.57C789.884 1103.27 796.209 1102.12 803.799 1102.12C808.859 1102.12 813.842 1102.73 818.749 1103.96C823.656 1105.11 827.987 1106.87 831.744 1109.25L825.994 1123.39C822.237 1121.25 818.481 1119.68 814.724 1118.68C810.967 1117.61 807.287 1117.07 803.684 1117.07C800.081 1117.07 797.129 1117.49 794.829 1118.33C792.529 1119.18 790.881 1120.29 789.884 1121.67C788.887 1122.97 788.389 1124.51 788.389 1126.27C788.389 1128.34 789.232 1130.03 790.919 1131.33C792.606 1132.56 794.829 1133.55 797.589 1134.32C800.349 1135.09 803.377 1135.85 806.674 1136.62C810.047 1137.39 813.382 1138.27 816.679 1139.26C820.052 1140.26 823.119 1141.6 825.879 1143.29C828.639 1144.98 830.862 1147.2 832.549 1149.96C834.312 1152.72 835.194 1156.21 835.194 1160.42C835.194 1164.95 833.929 1169.09 831.399 1172.84C828.869 1176.6 825.074 1179.63 820.014 1181.93C815.031 1184.23 808.706 1185.38 801.039 1185.38Z" fill="white"/>
</svg>
